PathFileType	4	(X/Y/Z)	Walk6.trc
DataRate	CameraRate	NumFrames	NumMarkers	Units	OrigDataRate	OrigDataStartFrame	OrigNumFrames
200.000000	200.000000	8	58	mm	200.000000	469	597
Frame#	Times		LBHD		LACR1		RMT5		LElbowM		RTH2		RTB3		LWRU		RToe		RTB2		RMT1		C7		LCAR		RCAL		RCAR		LASI		RFA1		RLFC		RWRU		LLFC		LTH3		LTH4		RElbow		RElbowM		LPSI		LTH2		RPSI		LTB2		RASI		LCAL		LMMAL		LFHD		T10		LMT5		LToe		RBHD		LUA1		LMT1		RTH3		RLMAL		RBack		RMFC		LTB1		LTB3		LTH1		LMFC		RFHD		RTB1		LTB4		RUA1		RTH1		RTH4		RTB4		LLMAL		RWRR		LWRR		RACR1		LElbow		RMMAL
			X1	Y1	Z1	X2	Y2	Z2	X3	Y3	Z3	X4	Y4	Z4	X5	Y5	Z5	X6	Y6	Z6	X7	Y7	Z7	X8	Y8	Z8	X9	Y9	Z9	X10	Y10	Z10	X11	Y11	Z11	X12	Y12	Z12	X13	Y13	Z13	X14	Y14	Z14	X15	Y15	Z15	X16	Y16	Z16	X17	Y17	Z17	X18	Y18	Z18	X19	Y19	Z19	X20	Y20	Z20	X21	Y21	Z21	X22	Y22	Z22	X23	Y23	Z23	X24	Y24	Z24	X25	Y25	Z25	X26	Y26	Z26	X27	Y27	Z27	X28	Y28	Z28	X29	Y29	Z29	X30	Y30	Z30	X31	Y31	Z31	X32	Y32	Z32	X33	Y33	Z33	X34	Y34	Z34	X35	Y35	Z35	X36	Y36	Z36	X37	Y37	Z37	X38	Y38	Z38	X39	Y39	Z39	X40	Y40	Z40	X41	Y41	Z41	X42	Y42	Z42	X43	Y43	Z43	X44	Y44	Z44	X45	Y45	Z45	X46	Y46	Z46	X47	Y47	Z47	X48	Y48	Z48	X49	Y49	Z49	X50	Y50	Z50	X51	Y51	Z51	X52	Y52	Z52	X53	Y53	Z53	X54	Y54	Z54	X55	Y55	Z55	X56	Y56	Z56	X57	Y57	Z57	X58	Y58	Z58

469	2.345	294.09	1616.1	2.5506	330.98	1419.8	-105.1	211.99	22.517	149.3	190.64	1115.1	-235.25	330.02	651.9	156.71	194.56	190.47	63.52	175.8	832.33	-237.35	312.33	22.235	108.4	219.36	272.22	142.89	258.79	27.681	67.02	245.33	1478.5	67.103	239.23	797.5	-216.71	50.22	41.652	45.184	437.59	806.61	330.37	346.38	1033.3	-105.89	322.99	921.57	344.17	258.08	509.67	164.55	364.88	810.09	308.62	395.93	524.91	-102.77	388.21	580.47	-109.65	366.08	672.21	-123.39	260.64	1071.2	351.04	221.79	1070.3	273.93	147.26	1038.7	0.98986	421.53	688.61	-78.334	140.48	1043.2	69.523	495.08	333.33	-100.9	319.64	988.76	204.16	496.02	33.971	-38.286	561.03	102.31	-9.0144	474.53	1621.6	35.426	161.18	1222.2	54.011	671.51	73.712	-94.789	724.26	130.19	-42.215	292.63	1608.7	139.18	261.35	1235.2	-193.51	694.03	93.532	-16.778	260.03	557.22	170.08	105.08	74.964	107.64	223.15	1361.1	217.08	236.73	483.29	38.083	487.54	425	-27.312	533.51	245.18	-34.774	342.87	762.07	-133.77	395.43	494.37	25.641	474.34	1619.4	110.24	267.44	362.1	77.7	509.75	334.81	-30.256	323.29	1234.4	305.74	260.77	742.33	214.27	262.95	645.79	190.97	230.22	271.67	68.084	544.26	82.089	-88.962	431.52	855.41	282.91	240.45	842.42	-181.73	352.37	1415.5	219.46	140.81	1117.7	-165.41	137.01	73.816	31.233
470	2.35	299.11	1615.4	1.9894	336	1419.1	-105.45	211.97	22.486	149.26	194.64	1114.8	-235.5	333.1	651.59	156.87	195.54	190.23	63.451	178.71	832.08	-237.44	312.36	22.114	108.34	220.91	271.82	142.81	258.82	27.704	66.961	250.26	1477.9	66.704	241.94	796.95	-216.71	50.345	42.106	45.155	443.07	806.3	330.32	351.42	1032.5	-105.76	328.33	921.12	344.12	260.95	509.08	164.5	370.33	809.68	308.63	399.53	523.93	-102.9	391.02	579.01	-110.21	369.14	670.85	-123.76	265.83	1070.7	350.95	226.94	1069.7	273.9	152.01	1038.2	0.41142	424.91	687.04	-79.032	145.14	1042.6	68.927	501.57	333.52	-100.81	323.82	988.22	204.39	506.84	34.172	-37.302	571.05	103.56	-8.3717	479.54	1620.8	34.961	166.01	1221.6	53.573	681.72	75.942	-94.283	733.94	133.07	-41.711	297.57	1608.1	138.62	265.78	1234.7	-193.81	704.1	96.12	-16.307	263.08	556.67	170.06	105.32	75.242	107.61	228.09	1360.6	216.76	239.56	482.86	37.954	493.04	425.34	-27.507	541.49	246.06	-34.52	346.21	760.78	-134.11	399.51	493.4	25.467	479.26	1618.8	109.79	269.42	361.37	77.651	516.52	335.41	-30.227	328.45	1233.8	305.44	264.52	741.77	214.13	266.43	645.33	191.15	231.64	271.28	67.891	554.37	82.93	-88.184	436.91	855.06	282.83	243.4	841.96	-181.81	357.31	1415	219.08	144.86	1117.6	-165.66	137.23	73.996	31.156
471	2.355	304.15	1614.7	1.4002	341.04	1418.3	-105.82	211.96	22.45	149.22	198.69	1114.5	-235.76	336.23	651.26	157.06	196.51	190.01	63.387	181.72	831.82	-237.56	312.39	21.992	108.27	222.47	271.43	142.74	258.86	27.737	66.918	255.2	1477.3	66.273	244.75	796.39	-216.73	50.466	42.579	45.144	448.48	805.97	330.25	356.48	1031.7	-105.65	333.64	920.68	344.05	263.82	508.49	164.45	375.73	809.27	308.61	403.42	523.06	-103	394.16	577.72	-110.74	372.43	669.63	-124.17	271	1070.2	350.83	232.08	1069.1	273.81	156.77	1037.6	-0.1585	428.44	685.69	-79.714	149.83	1042	68.345	507.9	333.63	-100.67	328.05	987.69	204.61	516.85	34.341	-36.21	580.39	104.66	-7.6656	484.56	1620.1	34.478	170.86	1221	53.128	691.12	77.888	-93.8	742.91	135.57	-41.273	302.52	1607.5	138.03	270.24	1234.1	-194.14	713.44	98.383	-15.863	266.14	556.13	170.03	105.58	75.536	107.59	233.02	1360.1	216.42	242.38	482.42	37.813	498.54	425.61	-27.663	549.07	246.8	-34.2	349.66	759.58	-134.5	403.82	492.58	25.337	484.17	1618.1	109.32	271.41	360.64	77.565	523.09	335.9	-30.146	333.61	1233.3	305.12	268.31	741.21	213.98	269.93	644.91	191.37	233.07	270.89	67.713	563.72	83.648	-87.331	442.25	854.7	282.75	246.45	841.51	-181.91	362.27	1414.4	218.67	148.96	1117.5	-165.93	137.44	74.191	31.09
472	2.36	309.19	1614	0.78317	346.08	1417.5	-106.22	211.95	22.409	149.18	202.79	1114.1	-236.04	339.4	650.9	157.26	197.48	189.81	63.329	184.83	831.54	-237.68	312.42	21.874	108.21	224.03	271.04	142.67	258.88	27.778	66.892	260.15	1476.6	65.811	247.66	795.84	-216.75	50.583	43.069	45.155	453.83	805.62	330.18	361.55	1030.8	-105.54	338.9	920.24	343.94	266.69	507.91	164.39	381.07	808.85	308.56	407.61	522.31	-103.05	397.7	576.63	-111.23	375.99	668.57	-124.6	276.15	1069.7	350.66	237.19	1068.6	273.68	161.54	1037.1	-0.71641	432.17	684.59	-80.359	154.55	1041.3	67.781	514.05	333.64	-100.48	332.35	987.17	204.83	526.04	34.453	-35.025	589.04	105.59	-6.9059	489.59	1619.4	33.974	175.73	1220.4	52.68	699.7	79.506	-93.347	751.19	137.64	-40.919	307.47	1607	137.42	274.74	1233.6	-194.48	722.06	100.28	-15.437	269.22	555.58	170	105.83	75.843	107.59	237.97	1359.6	216.05	245.19	482	37.659	504.05	425.79	-27.772	556.26	247.39	-33.817	353.24	758.51	-134.93	408.4	491.91	25.269	489.08	1617.5	108.83	273.39	359.93	77.433	529.46	336.28	-30.01	338.75	1232.8	304.77	272.13	740.65	213.82	273.46	644.54	191.63	234.5	270.52	67.548	572.29	84.21	-86.418	447.54	854.32	282.64	249.61	841.06	-182.03	367.22	1413.9	218.24	153.12	1117.3	-166.22	137.64	74.401	31.034
473	2.365	314.24	1613.3	0.13867	351.14	1416.8	-106.64	211.94	22.365	149.14	206.95	1113.8	-236.34	342.62	650.5	157.46	198.45	189.61	63.275	188.04	831.25	-237.83	312.44	21.761	108.15	225.59	270.66	142.61	258.9	27.825	66.883	265.11	1476	65.316	250.68	795.27	-216.8	50.695	43.579	45.185	459.12	805.26	330.08	366.63	1030	-105.44	344.11	919.81	343.79	269.57	507.33	164.32	386.36	808.44	308.48	412.09	521.66	-103.06	401.66	575.75	-111.67	379.85	667.68	-125.07	281.28	1069.3	350.46	242.29	1068.1	273.49	166.34	1036.5	-1.2593	436.1	683.76	-80.947	159.31	1040.7	67.236	520.01	333.55	-100.24	336.7	986.66	205.03	534.39	34.482	-33.769	597.01	106.31	-6.1027	494.62	1618.7	33.448	180.61	1219.9	52.231	707.47	80.763	-92.931	758.76	139.24	-40.655	312.42	1606.4	136.78	279.27	1233.1	-194.84	729.97	101.78	-15.024	272.31	555.05	169.97	106.09	76.164	107.61	242.92	1359.1	215.65	247.99	481.58	37.49	509.57	425.87	-27.825	563.06	247.81	-33.374	356.99	757.58	-135.42	413.25	491.4	25.279	493.99	1616.9	108.33	275.37	359.23	77.25	535.64	336.52	-29.817	343.88	1232.4	304.39	276	740.1	213.64	277	644.21	191.92	235.92	270.15	67.396	580.1	84.593	-85.458	452.79	853.93	282.52	252.87	840.61	-182.16	372.19	1413.4	217.79	157.33	1117.1	-166.52	137.83	74.627	30.99
474	2.37	319.3	1612.6	-0.53285	356.2	1416	-107.09	211.93	22.32	149.1	211.16	1113.4	-236.65	345.89	650.05	157.64	199.4	189.43	63.226	191.36	830.94	-238	312.46	21.659	108.1	227.15	270.29	142.55	258.91	27.874	66.89	270.09	1475.4	64.792	253.81	794.7	-216.85	50.803	44.108	45.236	464.34	804.89	329.97	371.71	1029.3	-105.37	349.28	919.39	343.62	272.44	506.76	164.24	391.59	808.04	308.38	416.87	521.1	-103	406.07	575.1	-112.06	384.05	666.97	-125.57	286.38	1068.8	350.21	247.37	1067.6	273.26	171.16	1036	-1.7849	440.24	683.21	-81.46	164.1	1040.1	66.711	525.79	333.34	-99.942	341.12	986.15	205.2	541.9	34.41	-32.466	604.29	106.8	-5.2655	499.66	1618.1	32.902	185.52	1219.3	51.785	714.44	81.637	-92.555	765.65	140.35	-40.482	317.38	1605.9	136.11	283.84	1232.6	-195.21	737.18	102.85	-14.621	275.41	554.52	169.93	106.34	76.499	107.64	247.87	1358.6	215.23	250.77	481.17	37.307	515.1	425.84	-27.812	569.46	248.03	-32.874	360.95	756.79	-135.95	418.38	491.04	25.383	498.89	1616.2	107.81	277.35	358.55	77.012	541.61	336.63	-29.563	348.99	1231.9	303.98	279.9	739.56	213.45	280.57	643.92	192.23	237.35	269.78	67.255	587.13	84.779	-84.468	457.98	853.54	282.39	256.24	840.16	-182.32	377.16	1412.9	217.32	161.59	1117	-166.84	138.02	74.869	30.955
475	2.375	324.36	1612	-1.2309	361.28	1415.3	-107.57	211.92	22.276	149.06	215.42	1113	-236.98	349.21	649.55	157.78	200.35	189.27	63.181	194.79	830.62	-238.19	312.48	21.567	108.05	228.71	269.92	142.49	258.92	27.921	66.914	275.07	1474.8	64.238	257.05	794.13	-216.93	50.904	44.657	45.305	469.5	804.52	329.85	376.78	1028.5	-105.33	354.4	918.99	343.41	275.31	506.2	164.15	396.76	807.65	308.25	421.93	520.62	-102.89	410.92	574.66	-112.39	388.6	666.45	-126.1	291.45	1068.4	349.93	252.42	1067.1	272.98	176	1035.4	-2.2918	444.61	682.92	-81.887	168.92	1039.6	66.208	531.38	333.01	-99.579	345.61	985.64	205.35	548.57	34.222	-31.142	610.88	107.04	-4.4028	504.69	1617.4	32.333	190.44	1218.7	51.341	720.61	82.121	-92.219	771.86	140.94	-40.391	322.34	1605.3	135.41	288.45	1232	-195.6	743.7	103.47	-14.233	278.52	553.99	169.88	106.6	76.849	107.7	252.84	1358.2	214.78	253.54	480.78	37.109	520.62	425.7	-27.722	575.48	248.06	-32.317	365.13	756.15	-136.53	423.77	490.81	25.589	503.79	1615.6	107.27	279.32	357.91	76.718	547.39	336.58	-29.243	354.08	1231.5	303.56	283.84	739.02	213.25	284.15	643.65	192.53	238.76	269.43	67.121	593.4	84.76	-83.463	463.12	853.14	282.24	259.72	839.7	-182.49	382.15	1412.4	216.83	165.91	1116.7	-167.17	138.21	75.13	30.93
476	2.38	329.43	1611.3	-1.9549	366.36	1414.6	-108.07	211.92	22.233	149.02	219.74	1112.6	-237.32	352.58	648.99	157.88	201.3	189.12	63.138	198.32	830.28	-238.4	312.5	21.487	108.01	230.26	269.56	142.42	258.93	27.962	66.952	280.07	1474.2	63.656	260.4	793.55	-217.03	51.001	45.227	45.388	474.59	804.14	329.7	381.85	1027.7	-105.33	359.46	918.6	343.17	278.17	505.65	164.05	401.86	807.26	308.09	427.23	520.2	-102.7	416.19	574.43	-112.66	393.49	666.09	-126.65	296.49	1068	349.6	257.45	1066.6	272.65	180.87	1034.9	-2.7795	449.22	682.88	-82.22	173.77	1039	65.726	536.79	332.57	-99.15	350.16	985.12	205.46	554.43	33.906	-29.824	616.79	107.01	-3.5218	509.74	1616.7	31.743	195.38	1218.2	50.902	726.02	82.214	-91.921	777.42	141.02	-40.362	327.31	1604.8	134.69	293.09	1231.5	-196.01	749.54	103.63	-13.866	281.63	553.48	169.83	106.87	77.213	107.76	257.81	1357.7	214.31	256.29	480.4	36.9	526.14	425.45	-27.544	581.12	247.88	-31.704	369.56	755.66	-137.14	429.41	490.7	25.902	508.69	1615.1	106.71	281.28	357.3	76.371	552.97	336.37	-28.852	359.15	1231	303.1	287.8	738.49	213.03	287.74	643.38	192.8	240.18	269.09	66.993	598.94	84.531	-82.456	468.21	852.73	282.08	263.3	839.24	-182.68	387.14	1411.9	216.32	170.29	1116.5	-167.51	138.39	75.409	30.912
